<svg width="280" height="55" viewBox="0 0 280 55" fill="none" xmlns="http://www.w3.org/2000/svg">
<rect x="1.5" y="1.5" width="277" height="52" rx="8.5" stroke="#CD06FF" stroke-width="3"/>
<path d="M35.8457 23.5488L32.752 22.8291C33.418 20.2653 35.3122 18.9834 38.4346 18.9834C40.2822 18.9834 41.6751 19.3916 42.6133 20.208C43.5586 21.0173 44.0312 21.9697 44.0312 23.0654C44.0312 23.8174 43.8164 24.4977 43.3867 25.1064C42.957 25.708 42.3125 26.238 41.4531 26.6963C42.4987 27.0544 43.2829 27.5628 43.8057 28.2217C44.3285 28.8734 44.5898 29.679 44.5898 30.6387C44.5898 32.0208 44.0814 33.138 43.0645 33.9902C42.0547 34.8424 40.54 35.2686 38.5205 35.2686C36.8734 35.2686 35.5736 34.9964 34.6211 34.4521C33.6686 33.9007 32.9525 32.873 32.4727 31.3691L35.3838 30.4131C35.6846 31.3584 36.082 31.9707 36.5762 32.25C37.0775 32.5293 37.6934 32.6689 38.4238 32.6689C39.4264 32.6689 40.1569 32.4541 40.6152 32.0244C41.0736 31.5876 41.3027 31.0898 41.3027 30.5312C41.3027 29.8867 41.0413 29.3675 40.5186 28.9736C40.0029 28.5798 39.2223 28.3828 38.1768 28.3828H37.457V26.0088H37.8223C38.7962 26.0088 39.541 25.7904 40.0566 25.3535C40.5723 24.9167 40.8301 24.3366 40.8301 23.6133C40.8301 23.0404 40.6188 22.557 40.1963 22.1631C39.7809 21.7692 39.1829 21.5723 38.4023 21.5723C37.0703 21.5723 36.2181 22.2311 35.8457 23.5488ZM61.5947 35H58.1357L56.7607 31.4229H50.4658L49.166 35H45.793L51.9268 19.252H55.2891L61.5947 35ZM55.7402 28.7695L53.5703 22.9258L51.4434 28.7695H55.7402ZM63.3457 19.252H66.5254V25.9551C67.2344 25.8835 67.7142 25.7008 67.9648 25.4072C68.2155 25.1136 68.6022 24.2972 69.125 22.958C69.7839 21.2536 70.4463 20.1937 71.1123 19.7783C71.7712 19.363 72.8346 19.1553 74.3027 19.1553C74.3743 19.1553 74.5283 19.1517 74.7646 19.1445V21.4971L74.3135 21.4863C73.6618 21.4863 73.1855 21.5687 72.8848 21.7334C72.584 21.891 72.3405 22.1344 72.1543 22.4639C71.9681 22.7933 71.6924 23.4701 71.3271 24.4941C71.1338 25.0384 70.9225 25.4932 70.6934 25.8584C70.4714 26.2236 70.0739 26.5674 69.501 26.8896C70.21 27.0902 70.7936 27.4948 71.252 28.1035C71.7174 28.7122 72.2259 29.5716 72.7773 30.6816L74.9258 35H71.1875L69.3076 30.9287C69.279 30.8714 69.2181 30.7604 69.125 30.5957C69.0892 30.5384 68.9567 30.2913 68.7275 29.8545C68.3193 29.0811 67.9827 28.5977 67.7178 28.4043C67.46 28.2109 67.0625 28.1107 66.5254 28.1035V35H63.3457V19.252ZM90.9209 35H87.4619L86.0869 31.4229H79.792L78.4922 35H75.1191L81.2529 19.252H84.6152L90.9209 35ZM85.0664 28.7695L82.8965 22.9258L80.7695 28.7695H85.0664ZM94.8633 23.5488L91.7695 22.8291C92.4355 20.2653 94.3298 18.9834 97.4521 18.9834C99.2998 18.9834 100.693 19.3916 101.631 20.208C102.576 21.0173 103.049 21.9697 103.049 23.0654C103.049 23.8174 102.834 24.4977 102.404 25.1064C101.975 25.708 101.33 26.238 100.471 26.6963C101.516 27.0544 102.3 27.5628 102.823 28.2217C103.346 28.8734 103.607 29.679 103.607 30.6387C103.607 32.0208 103.099 33.138 102.082 33.9902C101.072 34.8424 99.5576 35.2686 97.5381 35.2686C95.891 35.2686 94.5911 34.9964 93.6387 34.4521C92.6862 33.9007 91.9701 32.873 91.4902 31.3691L94.4014 30.4131C94.7021 31.3584 95.0996 31.9707 95.5938 32.25C96.0951 32.5293 96.7109 32.6689 97.4414 32.6689C98.444 32.6689 99.1745 32.4541 99.6328 32.0244C100.091 31.5876 100.32 31.0898 100.32 30.5312C100.32 29.8867 100.059 29.3675 99.5361 28.9736C99.0205 28.5798 98.2399 28.3828 97.1943 28.3828H96.4746V26.0088H96.8398C97.8138 26.0088 98.5586 25.7904 99.0742 25.3535C99.5898 24.9167 99.8477 24.3366 99.8477 23.6133C99.8477 23.0404 99.6364 22.557 99.2139 22.1631C98.7985 21.7692 98.2005 21.5723 97.4199 21.5723C96.0879 21.5723 95.2357 22.2311 94.8633 23.5488ZM120.612 35H117.153L115.778 31.4229H109.483L108.184 35H104.811L110.944 19.252H114.307L120.612 35ZM114.758 28.7695L112.588 22.9258L110.461 28.7695H114.758ZM124.759 35V21.916H120.086V19.252H132.601V21.916H127.938V35H124.759ZM134.728 19.252H137.907V25.5469H142.161C144.166 25.5469 145.617 26.016 146.512 26.9541C147.414 27.8923 147.865 29.0166 147.865 30.3271C147.865 31.4014 147.593 32.3145 147.049 33.0664C146.505 33.8184 145.882 34.3304 145.18 34.6025C144.485 34.8675 143.479 35 142.161 35H134.728V19.252ZM137.907 32.3574H141.001C142.004 32.3574 142.698 32.3109 143.085 32.2178C143.472 32.1175 143.815 31.8955 144.116 31.5518C144.424 31.208 144.578 30.7855 144.578 30.2842C144.578 29.5609 144.317 29.0309 143.794 28.6943C143.278 28.3577 142.394 28.1895 141.141 28.1895H137.907V32.3574ZM158.844 23.5488L155.75 22.8291C156.416 20.2653 158.31 18.9834 161.433 18.9834C163.28 18.9834 164.673 19.3916 165.611 20.208C166.557 21.0173 167.029 21.9697 167.029 23.0654C167.029 23.8174 166.814 24.4977 166.385 25.1064C165.955 25.708 165.311 26.238 164.451 26.6963C165.497 27.0544 166.281 27.5628 166.804 28.2217C167.326 28.8734 167.588 29.679 167.588 30.6387C167.588 32.0208 167.079 33.138 166.062 33.9902C165.053 34.8424 163.538 35.2686 161.519 35.2686C159.871 35.2686 158.572 34.9964 157.619 34.4521C156.667 33.9007 155.951 32.873 155.471 31.3691L158.382 30.4131C158.683 31.3584 159.08 31.9707 159.574 32.25C160.076 32.5293 160.691 32.6689 161.422 32.6689C162.424 32.6689 163.155 32.4541 163.613 32.0244C164.072 31.5876 164.301 31.0898 164.301 30.5312C164.301 29.8867 164.039 29.3675 163.517 28.9736C163.001 28.5798 162.22 28.3828 161.175 28.3828H160.455V26.0088H160.82C161.794 26.0088 162.539 25.7904 163.055 25.3535C163.57 24.9167 163.828 24.3366 163.828 23.6133C163.828 23.0404 163.617 22.557 163.194 22.1631C162.779 21.7692 162.181 21.5723 161.4 21.5723C160.068 21.5723 159.216 22.2311 158.844 23.5488ZM170.402 19.252H176.697C177.943 19.252 178.871 19.3057 179.479 19.4131C180.095 19.5133 180.643 19.7282 181.123 20.0576C181.61 20.387 182.015 20.8275 182.337 21.3789C182.659 21.9232 182.82 22.5355 182.82 23.2158C182.82 23.9535 182.62 24.6302 182.219 25.2461C181.825 25.862 181.288 26.3239 180.607 26.6318C181.567 26.9111 182.305 27.3874 182.82 28.0605C183.336 28.7337 183.594 29.5251 183.594 30.4346C183.594 31.1507 183.425 31.849 183.089 32.5293C182.759 33.2025 182.305 33.7432 181.725 34.1514C181.152 34.5524 180.443 34.7995 179.598 34.8926C179.068 34.9499 177.789 34.9857 175.763 35H170.402V19.252ZM173.582 21.873V25.5146H175.666C176.905 25.5146 177.675 25.4967 177.976 25.4609C178.52 25.3965 178.946 25.2103 179.254 24.9023C179.569 24.5872 179.727 24.1755 179.727 23.667C179.727 23.18 179.59 22.7861 179.318 22.4854C179.053 22.1774 178.656 21.9912 178.126 21.9268C177.811 21.891 176.905 21.873 175.408 21.873H173.582ZM173.582 28.1357V32.3467H176.525C177.671 32.3467 178.398 32.3145 178.706 32.25C179.179 32.1641 179.562 31.9564 179.855 31.627C180.156 31.2904 180.307 30.8428 180.307 30.2842C180.307 29.8115 180.192 29.4105 179.963 29.0811C179.734 28.7516 179.401 28.5117 178.964 28.3613C178.534 28.2109 177.596 28.1357 176.149 28.1357H173.582ZM185.087 27.2227C185.087 25.6185 185.327 24.2721 185.807 23.1836C186.165 22.3815 186.652 21.6618 187.268 21.0244C187.891 20.387 188.571 19.9144 189.309 19.6064C190.29 19.1911 191.421 18.9834 192.703 18.9834C195.023 18.9834 196.878 19.7031 198.268 21.1426C199.664 22.582 200.362 24.5837 200.362 27.1475C200.362 29.6898 199.671 31.6807 198.289 33.1201C196.907 34.5524 195.059 35.2686 192.746 35.2686C190.404 35.2686 188.542 34.556 187.16 33.1309C185.778 31.6986 185.087 29.7292 185.087 27.2227ZM188.363 27.1152C188.363 28.8984 188.775 30.252 189.599 31.1758C190.422 32.0924 191.468 32.5508 192.735 32.5508C194.003 32.5508 195.041 32.096 195.851 31.1865C196.667 30.2699 197.075 28.8984 197.075 27.0723C197.075 25.2676 196.678 23.9212 195.883 23.0332C195.095 22.1452 194.046 21.7012 192.735 21.7012C191.425 21.7012 190.368 22.1523 189.566 23.0547C188.764 23.9499 188.363 25.3034 188.363 27.1152ZM202.865 35V19.252H206.045V25.4502H212.275V19.252H215.455V35H212.275V28.1143H206.045V35H202.865ZM218.108 27.2227C218.108 25.6185 218.348 24.2721 218.828 23.1836C219.186 22.3815 219.673 21.6618 220.289 21.0244C220.912 20.387 221.592 19.9144 222.33 19.6064C223.311 19.1911 224.443 18.9834 225.725 18.9834C228.045 18.9834 229.9 19.7031 231.289 21.1426C232.686 22.582 233.384 24.5837 233.384 27.1475C233.384 29.6898 232.693 31.6807 231.311 33.1201C229.928 34.5524 228.081 35.2686 225.768 35.2686C223.426 35.2686 221.564 34.556 220.182 33.1309C218.799 31.6986 218.108 29.7292 218.108 27.2227ZM221.385 27.1152C221.385 28.8984 221.797 30.252 222.62 31.1758C223.444 32.0924 224.489 32.5508 225.757 32.5508C227.024 32.5508 228.063 32.096 228.872 31.1865C229.688 30.2699 230.097 28.8984 230.097 27.0723C230.097 25.2676 229.699 23.9212 228.904 23.0332C228.117 22.1452 227.067 21.7012 225.757 21.7012C224.446 21.7012 223.39 22.1523 222.588 23.0547C221.786 23.9499 221.385 25.3034 221.385 27.1152ZM235.93 19.252H239.109V25.9551C239.818 25.8835 240.298 25.7008 240.549 25.4072C240.799 25.1136 241.186 24.2972 241.709 22.958C242.368 21.2536 243.03 20.1937 243.696 19.7783C244.355 19.363 245.419 19.1553 246.887 19.1553C246.958 19.1553 247.112 19.1517 247.349 19.1445V21.4971L246.897 21.4863C246.246 21.4863 245.77 21.5687 245.469 21.7334C245.168 21.891 244.924 22.1344 244.738 22.4639C244.552 22.7933 244.276 23.4701 243.911 24.4941C243.718 25.0384 243.507 25.4932 243.277 25.8584C243.055 26.2236 242.658 26.5674 242.085 26.8896C242.794 27.0902 243.378 27.4948 243.836 28.1035C244.301 28.7122 244.81 29.5716 245.361 30.6816L247.51 35H243.771L241.892 30.9287C241.863 30.8714 241.802 30.7604 241.709 30.5957C241.673 30.5384 241.541 30.2913 241.312 29.8545C240.903 29.0811 240.567 28.5977 240.302 28.4043C240.044 28.2109 239.646 28.1107 239.109 28.1035V35H235.93V19.252Z" fill="white"/>
</svg>
